<svg xmlns="http://www.w3.org/2000/svg">
    <defs>

        <symbol id="icon-info" viewBox="0 0 32 32">
            <title>Info</title>
            <path fill="currentColor" d="M14 9.5c0-0.825 0.675-1.5 1.5-1.5h1c0.825 0 1.5 0.675 1.5 1.5v1c0 0.825-0.675 1.5-1.5 1.5h-1c-0.825 0-1.5-0.675-1.5-1.5v-1z"></path>
            <path fill="currentColor" d="M20 24h-8v-2h2v-6h-2v-2h6v8h2z"></path>
            <path fill="currentColor" d="M16 0c-8.837 0-16 7.163-16 16s7.163 16 16 16 16-7.163 16-16-7.163-16-16-16zM16 29c-7.18 0-13-5.82-13-13s5.82-13 13-13 13 5.82 13 13-5.82 13-13 13z"></path>
        </symbol>

        <symbol id="icon-archive" viewBox="0 0 48 48">
            <title>Archive call</title>
            <path fill="currentColor" d="M41.09 10.45l-2.77-3.36c-.56-.66-1.39-1.09-2.32-1.09h-24c-.93 0-1.76.43-2.31 1.09l-2.77 3.36c-.58.7-.92 1.58-.92 2.55v25c0 2.21 1.79 4 4 4h28c2.21 0 4-1.79 4-4v-25c0-.97-.34-1.85-.91-2.55zm-17.09 24.55l-11-11h7v-4h8v4h7l-11 11zm-13.75-25l1.63-2h24l1.87 2h-27.5z" />
            <path d="M0 0h48v48h-48z" fill="none" />
        </symbol>

        <symbol id="icon-incoming-call" viewBox="0 0 256 256">
            <title>Incoming call</title>
            <rect fill="none" height="256" width="256" />
            <path fill="currentColor" d="M222,158.4l-46.9-20a15.6,15.6,0,0,0-15.1,1.3l-25.1,16.7a76.5,76.5,0,0,1-35.2-35h0L116.3,96a15.9,15.9,0,0,0,1.4-15.1L97.6,34a16.3,16.3,0,0,0-16.7-9.6A56.2,56.2,0,0,0,32,80c0,79.4,64.6,144,144,144a56.2,56.2,0,0,0,55.6-48.9A16.3,16.3,0,0,0,222,158.4Z" />
            <path fill="currentColor" d="M152.1,97.1a.9.9,0,0,0,.1.5v.3a.8.8,0,0,1,.1.4l.2.4c0,.1.1.2.1.4l.2.3c0,.1.1.2.1.4l.2.3.3.3.2.3a.8.8,0,0,0,.2.4c.1.1.3.2.4.4a.3.3,0,0,1,.1.2h.2l.4.4.4.2.3.3.3.2.3.2h.4l.3.2h.4l.4.2H200a8,8,0,0,0,0-16H179.3l34.4-34.3a8.1,8.1,0,0,0-11.4-11.4L168,76.7V56a8,8,0,0,0-16,0V96.8A.4.4,0,0,1,152.1,97.1Z" />
        </symbol>

        <symbol id="icon-missed-call" viewBox="0 0 18 11">
            <title>Missed call</title>
            <g fill="none" fill-rule="evenodd" id="Page-1" stroke="none" stroke-width="1">
                <g fill="currentColor" id="Icons-Communication" transform="translate(-169.000000, -4.000000)">
                    <g id="call-missed" transform="translate(169.000000, 4.000000)">
                        <path d="M16.6,0 L9,7.6 L3.4,2 L8,2 L8,0 L0,0 L0,8 L2,8 L2,3.4 L9,10.4 L18,1.4 L16.6,0 Z" id="Shape" />
                    </g>
                </g>
            </g>
        </symbol>

        <symbol id="icon-answered-call" viewBox="0 0 16 16">
            <title>Answered call</title>
            <g fill="none" fill-rule="evenodd" id="Page-1" stroke="none" stroke-width="1">
                <g fill="currentColor" id="Icons-Communication" transform="translate(-212.000000, -1.000000)">
                    <g id="call-received" transform="translate(212.000000, 1.000000)">
                        <path d="M16,1.4 L14.6,0 L2,12.6 L2,6 L0,6 L0,16 L10,16 L10,14 L3.4,14 L16,1.4 Z" id="Shape" />
                    </g>
                </g>
            </g>
        </symbol>

        <symbol id="icon-voicemail" viewBox="0 0 24 24">
            <title>Voicemail</title>

            <path fill="currentColor" d="M25.49,0A25.49,25.49,0,0,1,45.68,41.06H77.2a25.49,25.49,0,1,1,22.17,9.85,4.94,4.94,0,0,1-.87.08h-73a25.5,25.5,0,0,1,0-51ZM108.4,14.48a15.57,15.57,0,1,0,4.56,11,15.56,15.56,0,0,0-4.56-11Zm-71.9,0a15.57,15.57,0,1,0,4.56,11,15.54,15.54,0,0,0-4.56-11Z" />
        </symbol>

        <symbol id="icon-outgoing-call" viewBox="0 0 24 24">
            <title>Outgoing call</title>

            <g fill="none" fill-rule="evenodd" id="Page-1" stroke="none" stroke-width="1">
                <g fill="currentColor" id="Icons-Communication" transform="translate(-86.000000, -1.000000)">
                    <g id="call-made" transform="translate(86.000000, 1.000000)">
                        <path d="M6,0 L6,2 L12.6,2 L0,14.6 L1.4,16 L14,3.4 L14,10 L16,10 L16,0 L6,0 Z" id="Shape" />
                    </g>
                </g>
            </g>
        </symbol>

        <symbol id="icon-notes" viewBox="0 0 24 24">
            <title>Call notes</title>

            <path fill-rule="nonzero" d="M35.7 32.95h33.54V11.18C69.24 5.01 74.25 0 80.43 0c6.17 0 11.18 5.01 11.18 11.18v21.77h49.21V11.18c0-6.17 5.01-11.18 11.19-11.18 6.17 0 11.18 5.01 11.18 11.18v21.77h49.21V11.18C212.4 5.01 217.41 0 223.59 0c6.17 0 11.18 5.01 11.18 11.18v21.77h49.21V11.18c0-6.17 5.01-11.18 11.19-11.18 6.17 0 11.18 5.01 11.18 11.18v21.77h34.55c9.83 0 18.76 4.03 25.21 10.49 5.36 5.35 9.04 12.4 10.15 20.23h.04c9.82 0 18.76 4.03 25.21 10.48C407.98 80.62 412 89.56 412 99.37v376.8c0 9.77-4.04 18.7-10.49 25.17-6.51 6.5-15.45 10.53-25.21 10.53H67.71c-9.81 0-18.75-4.02-25.22-10.49-6.14-6.14-10.09-14.53-10.45-23.8-8.36-.86-15.9-4.66-21.55-10.31C4.03 460.82 0 451.89 0 442.06V68.65c0-9.83 4.03-18.77 10.48-25.22 6.45-6.45 15.39-10.48 25.22-10.48zm340.9 51.06v358.05c0 9.8-4.03 18.74-10.49 25.2-6.47 6.47-15.41 10.5-25.21 10.5H52.43c.39 3.59 2.01 6.82 4.44 9.25 2.79 2.79 6.64 4.53 10.84 4.53H376.3c4.22 0 8.07-1.74 10.85-4.52 2.78-2.78 4.52-6.63 4.52-10.85V99.37c0-4.2-1.74-8.05-4.54-10.84a15.334 15.334 0 0 0-10.53-4.52zm-294 302.37c-5.74 0-10.4-4.86-10.4-10.85 0-5.99 4.66-10.85 10.4-10.85h214.78c5.74 0 10.41 4.86 10.41 10.85 0 5.99-4.67 10.85-10.41 10.85H82.6zm0-71.58c-5.74 0-10.4-4.86-10.4-10.85 0-5.99 4.66-10.85 10.4-10.85h214.78c5.74 0 10.41 4.86 10.41 10.85 0 5.99-4.67 10.85-10.41 10.85H82.6zm0-71.58c-5.74 0-10.4-4.86-10.4-10.85 0-5.99 4.66-10.85 10.4-10.85h214.78c5.74 0 10.41 4.86 10.41 10.85 0 5.99-4.67 10.85-10.41 10.85H82.6zm0-71.58c-5.74 0-10.4-4.86-10.4-10.85 0-5.99 4.66-10.85 10.4-10.85h214.78c5.74 0 10.41 4.86 10.41 10.85 0 5.99-4.67 10.85-10.41 10.85H82.6zM306.35 53.28v21.77c0 6.17-5.01 11.18-11.18 11.18-6.18 0-11.19-5.01-11.19-11.18V53.28h-49.21v21.77c0 6.17-5.01 11.18-11.18 11.18-6.18 0-11.19-5.01-11.19-11.18V53.28h-49.21v21.77c0 6.17-5.01 11.18-11.18 11.18-6.18 0-11.19-5.01-11.19-11.18V53.28H91.61v21.77c0 6.17-5.01 11.18-11.18 11.18-6.18 0-11.19-5.01-11.19-11.18V53.28H35.7c-4.22 0-8.07 1.75-10.85 4.52-2.77 2.78-4.52 6.63-4.52 10.85v373.41c0 4.2 1.75 8.05 4.53 10.84 2.8 2.79 6.65 4.53 10.84 4.53h305.2c4.19 0 8.03-1.75 10.83-4.54 2.79-2.8 4.54-6.65 4.54-10.83V68.65c0-4.19-1.74-8.04-4.53-10.84-2.79-2.78-6.64-4.53-10.84-4.53h-34.55z" />
        </symbol>
        <symbol id="icon-call" viewBox="0 0 512 512">
            <title>Call</title>
            <path fill="currentColor" d="M511.2 387l-23.25 100.8c-3.266 14.25-15.79 24.22-30.46 24.22C205.2 512 0 306.8 0 54.5c0-14.66 9.969-27.2 24.22-30.45l100.8-23.25C139.7-2.602 154.7 5.018 160.8 18.92l46.52 108.5c5.438 12.78 1.77 27.67-8.98 36.45L144.5 207.1c33.98 69.22 90.26 125.5 159.5 159.5l44.08-53.8c8.688-10.78 23.69-14.51 36.47-8.975l108.5 46.51C506.1 357.2 514.6 372.4 511.2 387z" />
        </symbol>
        <symbol id="icon-chevron-down" viewBox="0 0 448 512">
            <title>Call</title>
                <path fill="currentColor" d="M224 416c-8.188 0-16.38-3.125-22.62-9.375l-192-192c-12.5-12.5-12.5-32.75 0-45.25s32.75-12.5 45.25 0L224 338.8l169.4-169.4c12.5-12.5 32.75-12.5 45.25 0s12.5 32.75 0 45.25l-192 192C240.4 412.9 232.2 416 224 416z" />
        </symbol>

    </defs>
</svg>
